<svg width="440" height="344" viewBox="0 0 440 344" fill="none" xmlns="http://www.w3.org/2000/svg">
<g clip-path="url(#clip0_102_1484)">
<path opacity="0.15" d="M71.9965 308.825C44.9013 304.808 -0.436947 317.415 -17 318.088C-27.261 338.755 -32.4711 424.801 -26 436.104C-17.911 450.233 89.4364 420.851 139.126 427.915C178.877 433.567 365.72 439.353 441.602 427.915C449.691 384.518 447.43 249.078 428.016 248.271C403.75 247.261 347.075 255.746 307.731 313.273C256.309 388.461 174.842 370.295 145.953 344.055C122.67 322.907 102 313.273 71.9965 308.825Z" fill="#188940"/>
<path opacity="0.15" d="M61.0186 268.658C28.7715 242.774 3.91198 247.697 -10.5283 253.888C-13.3578 285.48 -24.7909 408.67 -18 422.456C-9.51138 439.688 83.773 430.869 136 422.456C177.738 415.732 359.369 436.405 439 422.456C447.489 369.529 450.04 181.021 429.667 180.036C404.201 178.805 344.726 208.935 303.439 279.094C249.475 370.793 228.254 246.467 168.227 232.312C133.891 224.215 93.3224 294.588 61.0186 268.658Z" fill="#188940"/>
<path opacity="0.15" d="M13.8925 189.201C-8.0814 172.848 -53.9907 162.513 -68.9025 155.272C-87.718 168.63 -133.003 241.98 -132.647 255C-132.202 271.275 -23.7226 296.154 16.7172 325.879C49.069 349.659 210.959 443.122 283.228 468.932C310.879 434.52 372.942 314.115 356.219 304.222C335.314 291.856 281.366 272.529 219.494 304.608C138.626 346.536 75.4375 292.001 62.3935 255.218C51.8811 225.574 38.2249 207.31 13.8925 189.201Z" fill="#188940"/>
<path opacity="0.15" d="M23.2164 148.618C7.04527 110.561 -17.1868 103.142 -32.8378 101.767C-50.2721 128.265 -118.607 231.4 -119.143 246.758C-119.814 265.955 -33.4504 302.303 16.5455 319.59C56.5005 333.406 206.757 437.521 283.517 462.891C316.028 420.271 407.428 255.384 389.944 244.882C368.088 231.754 301.435 230.173 231.876 272.463C140.961 327.738 181.062 208.157 134.867 167.297C108.443 143.924 39.4159 186.743 23.2164 148.618Z" fill="#188940"/>
<path opacity="0.15" d="M305.74 290.917C274.631 318.133 236.656 376.915 219.918 395.695C224.301 421.203 281.563 485.914 296.529 486.5C315.235 487.233 405.488 348.373 462.318 298.255C507.782 258.16 706.342 55.4694 776.938 -36.2949C753.737 -74.9719 652.721 -165.258 631.94 -144.339C605.964 -118.19 553.195 -49.6933 554.179 33.232C555.464 141.617 457.493 219.277 408.329 233.253C368.707 244.517 340.188 260.779 305.74 290.917Z" fill="#188940"/>
<path opacity="0.15" d="M265.061 275.541C212.663 293.475 190.392 324.344 179.882 344.556C199.953 369.329 277.801 466.368 294.907 468.302C316.29 470.718 406.895 361.5 455.09 297.972C493.606 247.202 697.588 60.4743 770.254 -37.1575C740.528 -82.8052 605.858 -214.769 583.95 -192.91C556.565 -165.587 516.651 -79.1645 524.816 14.565C535.486 137.071 422.844 75.3698 350.096 132.064C308.483 164.494 317.551 257.576 265.061 275.541Z" fill="#188940"/>
</g>
<defs>
<clipPath id="clip0_102_1484">
<rect width="440" height="344" fill="white"/>
</clipPath>
</defs>
</svg>
